<svg xmlns="http://www.w3.org/2000/svg" xmlns:xlink="http://www.w3.org/1999/xlink" width="123" height="32" viewBox="0 0 123 32"><defs><clipPath id="b"><rect width="123" height="32"/></clipPath></defs><g id="a" clip-path="url(#b)"><g transform="translate(-0.048 -0.071)"><g transform="translate(0.048 0.071)"><g transform="translate(0)"><g transform="translate(0)"><path d="M112.068,3.557l4.563-3.22v17a9.3,9.3,0,0,0,.113,1.619,2.394,2.394,0,0,0,.356.955,1.241,1.241,0,0,0,.631.469,3.106,3.106,0,0,0,.971.13,5.435,5.435,0,0,0,.566-.032q.2-.021.6-.1l.291,3.529a8.9,8.9,0,0,1-1.246.226q-.728.065-1.343.065a5.693,5.693,0,0,1-4-1.376q-1.5-1.376-1.5-4.484Z" transform="translate(3.173 -0.063)" fill="#162b42" fill-rule="evenodd"/><path d="M104.5,20.421q-.356.065-.841.146a5.867,5.867,0,0,1-.971.081q-.42,0-.987-.049a3.513,3.513,0,0,1-1.068-.259,2.125,2.125,0,0,1-.857-.664,2.055,2.055,0,0,1-.356-1.295,1.983,1.983,0,0,1,.922-1.829,4.769,4.769,0,0,1,2.508-.567,7.61,7.61,0,0,1,.809.049q.453.048.841.113Zm2.573-12.108a7.84,7.84,0,0,0-5.259-1.619,16.937,16.937,0,0,0-2.654.226,24.918,24.918,0,0,0-2.848.712L97.221,11a16.483,16.483,0,0,1,3.721-.68,10.2,10.2,0,0,1,1.472.1,2.961,2.961,0,0,1,1.116.372,1.935,1.935,0,0,1,.712.761,2.676,2.676,0,0,1,.259,1.262V13.2q-1.133-.1-2.071-.1a12.411,12.411,0,0,0-2.589.275,7.586,7.586,0,0,0-2.346.906,5.118,5.118,0,0,0-1.715,1.684,4.794,4.794,0,0,0-.663,2.606,5.826,5.826,0,0,0,.534,2.622,4.576,4.576,0,0,0,1.521,1.748,6.487,6.487,0,0,0,2.362.971,14.593,14.593,0,0,0,3.026.292,18.742,18.742,0,0,0,3.657-.324,27.044,27.044,0,0,0,2.75-.68V13.492Q108.967,9.931,107.074,8.313Z" transform="translate(2.685 0.119)" fill="#162b42"/><path d="M83.817,3.353,88.348.071v7.2h3.916v3.5H88.348v6.572a6.562,6.562,0,0,0,.162,1.619,2.406,2.406,0,0,0,.469.971,1.545,1.545,0,0,0,.76.485,3.91,3.91,0,0,0,1.068.13,5.6,5.6,0,0,0,.955-.081l.825-.146.356,3.529a19.2,19.2,0,0,1-3.074.356,6.577,6.577,0,0,1-4.5-1.376q-1.553-1.376-1.553-4.484Z" transform="translate(2.36 -0.071)" fill="#162b42" fill-rule="evenodd"/><path d="M38.891,20.344a5.781,5.781,0,0,1-1,.21,9.46,9.46,0,0,1-1,.049A5.61,5.61,0,0,1,35.2,20.36a3.313,3.313,0,0,1-1.343-.793,3.738,3.738,0,0,1-.89-1.473,6.837,6.837,0,0,1-.324-2.25,8.575,8.575,0,0,1,.243-2.056,4.977,4.977,0,0,1,.76-1.716,3.887,3.887,0,0,1,1.311-1.165,3.793,3.793,0,0,1,1.861-.437,7,7,0,0,1,2.071.259Zm0-16.794V7.2a6.352,6.352,0,0,0-1.213-.21q-.631-.049-1.214-.049a8.685,8.685,0,0,0-3.527.7,8.084,8.084,0,0,0-2.7,1.894,8.271,8.271,0,0,0-1.715,2.833,10.044,10.044,0,0,0-.6,3.48,9.993,9.993,0,0,0,.7,3.949,7.053,7.053,0,0,0,1.893,2.639,7.547,7.547,0,0,0,2.767,1.489,11.4,11.4,0,0,0,3.285.469,25.377,25.377,0,0,0,3.8-.243,23.216,23.216,0,0,0,3.091-.7V.337Z" transform="translate(0.753 -0.063)" fill="#162b42"/><path d="M61.15,10.5A2.382,2.382,0,0,1,63.156,9.7a2.3,2.3,0,0,1,1.958.793,3.493,3.493,0,0,1,.6,2.153,3.42,3.42,0,0,1-.6,2.136,2.318,2.318,0,0,1-1.958.777,2.407,2.407,0,0,1-2.006-.777,3.357,3.357,0,0,1-.615-2.136A3.428,3.428,0,0,1,61.15,10.5Zm.388,10.473a2.173,2.173,0,0,1-1.375-.356,1.109,1.109,0,0,1-.34-.841,2.5,2.5,0,0,1,.129-.761,1.527,1.527,0,0,1,.68-.761,9.747,9.747,0,0,0,2.492.291,9.029,9.029,0,0,0,2.961-.453,6.748,6.748,0,0,0,2.217-1.23A5.082,5.082,0,0,0,69.677,15a5.85,5.85,0,0,0,.469-2.347,4.065,4.065,0,0,0-.421-1.975h2.858L70.428,7.1a6.884,6.884,0,0,0-2.062,1.407A7.361,7.361,0,0,0,66.1,7.227a8.541,8.541,0,0,0-2.977-.5,9.169,9.169,0,0,0-2.977.453A6.748,6.748,0,0,0,57.9,8.425,5.316,5.316,0,0,0,56.49,10.3,5.682,5.682,0,0,0,56,12.65a5.466,5.466,0,0,0,.615,2.59,5.649,5.649,0,0,0,1.748,1.975A5.9,5.9,0,0,0,56.846,18.7a3.553,3.553,0,0,0-.518,2.007,3.037,3.037,0,0,0,.437,1.7,3.655,3.655,0,0,0,1.126,1.079,9.78,9.78,0,0,0,4.192.926l2.664.051a2.978,2.978,0,0,1,1.084.162,1.721,1.721,0,0,1,.631.4,1.278,1.278,0,0,1,.307.534,2.286,2.286,0,0,1,.081.615A1.953,1.953,0,0,1,65.6,27.93a7.135,7.135,0,0,1-3.284.648,5.854,5.854,0,0,1-2.476-.437,1.668,1.668,0,0,1-.922-1.668,2.5,2.5,0,0,1,.113-.728q0-.015-3.263-.045a4.283,4.283,0,0,0-.383,1.875,4.21,4.21,0,0,0,.372,1.78,3.212,3.212,0,0,0,1.23,1.36,6.947,6.947,0,0,0,2.217.858,15.2,15.2,0,0,0,3.3.307,14.91,14.91,0,0,0,3.624-.421,9.934,9.934,0,0,0,2.913-1.2,6.153,6.153,0,0,0,1.941-1.894,4.513,4.513,0,0,0,.712-2.477,4.512,4.512,0,0,0-1.391-3.545,6.594,6.594,0,0,0-4.336-1.311Z" transform="translate(1.543 0.12)" fill="#162b42"/><path d="M47.867,7.072h4.5V23.809h-4.5Z" transform="translate(1.327 0.13)" fill="#162b42" fill-rule="evenodd"/><path d="M75.309,7.072h4.5V23.809h-4.5Z" transform="translate(2.116 0.13)" fill="#162b42" fill-rule="evenodd"/><path d="M11.992,14.08l5.287-9.657H9.309V.122h15.9L18.981,10.414h.145A5.856,5.856,0,0,1,23.6,12.389a6.3,6.3,0,0,1,1.2,2.047,6.916,6.916,0,0,1,.417,2.356,9.785,9.785,0,0,1-.8,4.077A8.13,8.13,0,0,1,22.2,23.8a9.587,9.587,0,0,1-3.333,1.776,13.936,13.936,0,0,1-4.166.6q-1.087,0-1.938-.054a13.615,13.615,0,0,1-1.63-.2,15.747,15.747,0,0,1-1.576-.381q-.531-.157-1.775-.561l1.268-4.24q1.781.532,2.59.725a12.166,12.166,0,0,0,2.807.29,8.586,8.586,0,0,0,2.192-.272,5.224,5.224,0,0,0,1.793-.834,4.113,4.113,0,0,0,1.214-1.431,4.5,4.5,0,0,0,.453-2.1,3.029,3.029,0,0,0-.4-1.577,3.4,3.4,0,0,0-1.051-1.105,4.548,4.548,0,0,0-1.521-.634,8.093,8.093,0,0,0-1.811-.2q-.616,0-1.268.036a8.311,8.311,0,0,0-1.268.217ZM.092,7.271h4.5V24.009H.092Z" transform="translate(-0.047 -0.07)" fill="#1bbfce"/><path d="M.048,4.3H4.6V.117H.048Z" transform="translate(-0.048 -0.07)" fill="#1bbfce" fill-rule="evenodd"/><path d="M47.869,4.3h4.552V.117H47.869Z" transform="translate(1.327 -0.07)" fill="#1bbfce" fill-rule="evenodd"/><path d="M75.264,4.3h4.552V.117H75.264Z" transform="translate(2.115 -0.07)" fill="#1bbfce" fill-rule="evenodd"/></g></g></g></g></g></svg>